<?xml version="1.0" encoding="UTF-8"?>
<svg width="41px" height="38px" viewBox="0 0 41 38" version="1.1" xmlns="http://www.w3.org/2000/svg" xmlns:xlink="http://www.w3.org/1999/xlink">
    <!-- Generator: Sketch 63.1 (92452) - https://sketch.com -->
    <title>icon/40/wallet</title>
    <desc>Created with Sketch.</desc>
    <g id="Test" stroke="none" stroke-width="1" fill="none" fill-rule="evenodd">
        <g id="Artboard" transform="translate(-941.000000, -452.000000)" fill="#FFFFFF">
            <g id="icon/40/wallet" transform="translate(941.000000, 452.000000)">
                <path d="M4.08436637,5.36443651 C3.67709813,5.36443651 3.31990385,5.06704364 3.25981509,4.65565016 C3.19471893,4.20460431 3.51018491,3.78494992 3.96752712,3.7205148 L29.9709369,0.00806042654 C30.4165952,-0.0547225134 30.8489004,0.255887821 30.9156657,0.708585862 C30.9807618,1.1612839 30.6652959,1.57928611 30.2079536,1.64537341 L4.20454389,5.3561756 C4.16448471,5.36278433 4.12442554,5.36443651 4.08436637,5.36443651 M25.6745907,8.85384623 C25.2656534,8.85384623 24.9101282,8.55810554 24.8483703,8.14671206 C24.7832742,7.69401402 25.1004093,7.27601182 25.5560823,7.20992451 L30.1328427,6.55731237 C30.578501,6.49452943 31.0124753,6.80513977 31.0792406,7.25783781 C31.1443368,7.70888366 30.8272017,8.12688587 30.3715286,8.19297317 L25.7947682,8.84558531 C25.7530399,8.85219404 25.7146499,8.85384623 25.6745907,8.85384623 M33.6747411,9.34950102 C33.2507816,9.34950102 32.8869107,9.02897759 32.8435133,8.60106228 L32.4696277,4.71678092 L4.20454389,8.75306309 C3.75554734,8.81088948 3.32491124,8.50358351 3.25981509,8.05253765 C3.19471893,7.60149179 3.51018491,7.18183741 3.96752712,7.11740228 L33.0988905,2.95720642 C33.3242234,2.92746713 33.5545636,2.98694571 33.7331607,3.12738123 C33.913427,3.26616457 34.0252589,3.4726874 34.0486267,3.69738424 L34.5076381,8.44410493 C34.5510355,8.89845516 34.2138708,9.30158772 33.7548595,9.34454447 C33.7281534,9.34784883 33.7014472,9.34950102 33.6747411,9.34950102 M29.6838462,25.7308918 C28.9778033,25.7308918 28.4019527,25.1592366 28.4019527,24.4587112 C28.4019527,23.7581857 28.9778033,23.1881827 29.6838462,23.1881827 C30.3915582,23.1881827 30.9657396,23.7581857 30.9657396,24.4587112 C30.9657396,25.1592366 30.3915582,25.7308918 29.6838462,25.7308918 M9.11346154,30.9055278 C9.04168886,30.9055278 8.96824704,30.8972669 8.89480523,30.8757885 C8.44914694,30.7584835 8.1870932,30.3041333 8.30727071,29.8630005 C8.53260355,29.0385614 9.13682939,28.3909058 9.90463018,28.0819477 L9.90463018,25.1030624 L8.76962032,25.1030624 C8.30727071,25.1030624 7.93505424,24.7329735 7.93505424,24.2769711 C7.93505424,23.8193165 8.30727071,23.4508798 8.76962032,23.4508798 L9.90463018,23.4508798 L9.90463018,21.616957 L9.90463018,21.6103483 C9.90963757,19.6277292 11.4919749,18.0135467 13.4365138,18.0135467 C14.3728969,18.0135467 15.2541987,18.3836356 15.9201824,19.0577261 C16.242325,19.3848583 16.2356484,19.906948 15.9068294,20.2258193 C15.5763412,20.5463427 15.0472263,20.539734 14.726753,20.2126018 C14.3779043,19.8590347 13.9205621,19.6657294 13.4365138,19.6657294 C12.4116667,19.6657294 11.5754315,20.539734 11.5737623,21.6136527 L11.5737623,21.6153049 L11.5737623,21.616957 L11.5737623,23.4508798 L14.1425567,23.4508798 C14.6049063,23.4508798 14.9771228,23.8193165 14.9771228,24.2769711 C14.9771228,24.7329735 14.6049063,25.1030624 14.1425567,25.1030624 L11.5737623,25.1030624 L11.5737623,27.9662949 C12.1345907,28.1050782 12.6403378,28.4189929 13.0142234,28.8733432 C13.0192308,28.8782997 13.022569,28.8849084 13.0259073,28.889865 C13.224534,29.1145618 13.5066174,29.2401277 13.805392,29.2401277 C14.3762352,29.2401277 14.8402539,28.7808209 14.8402539,28.2157745 C14.8402539,27.7597721 15.2141395,27.3896832 15.67482,27.3896832 C16.1371696,27.3896832 16.5093861,27.7597721 16.5093861,28.2157745 C16.5093861,29.6928257 15.2975962,30.8923103 13.805392,30.8923103 C12.9891864,30.8923103 12.2247239,30.5321345 11.708962,29.9059573 C11.7039546,29.9010007 11.6989472,29.8960442 11.6972781,29.8894355 C11.1932002,29.3210846 10.1182791,29.5639555 9.91798323,30.2958724 C9.81783531,30.6643091 9.48067061,30.9055278 9.11346154,30.9055278 M37.3184566,38 L0.834566075,38 C0.372216469,38 0,37.6315633 0,37.1739087 L0,10.5109854 C0,10.2482884 0.126854043,10.000461 0.342172091,9.8451558 C0.557490138,9.68819845 0.836235207,9.64358952 1.08660503,9.72454647 C1.14335552,9.7410683 6.91187623,11.5089037 19.0748422,11.5089037 C31.2411464,11.5089037 37.0096672,9.7410683 37.0664177,9.72454647 C37.3151183,9.64358952 37.5938634,9.68819845 37.8108506,9.8451558 C38.0261686,10.000461 38.1530227,10.2482884 38.1530227,10.5109854 L38.1530227,16.6025828 C38.1530227,17.0602373 37.7791371,17.4286741 37.3184566,17.4286741 C36.8577761,17.4286741 36.4838905,17.0602373 36.4838905,16.6025828 L36.4838905,11.5865563 C34.267283,12.1102982 28.633962,13.1610863 19.0748422,13.1610863 C9.51906065,13.1610863 3.88573964,12.1102982 1.66913215,11.5865563 L1.66913215,36.3478174 L36.4838905,36.3478174 L36.4838905,30.0810887 L30.0644083,30.0810887 C26.9331164,30.0810887 24.3860207,27.559858 24.3860207,24.4587112 C24.3860207,21.3592166 26.9331164,18.8379859 30.0644083,18.8379859 L39.2246055,18.8379859 C39.685286,18.8379859 40.0591716,19.2064226 40.0591716,19.6640772 L40.0591716,26.4347216 C40.0591716,26.890724 39.685286,27.2608129 39.2246055,27.2608129 C38.7622559,27.2608129 38.3900394,26.890724 38.3900394,26.4347216 L38.3900394,20.4901685 L30.0644083,20.4901685 C27.8544773,20.4901685 26.0551529,22.2695692 26.0551529,24.4587112 C26.0551529,26.6478532 27.8544773,28.428906 30.0644083,28.428906 L37.3184566,28.428906 C37.7791371,28.428906 38.1530227,28.7989949 38.1530227,29.2549973 L38.1530227,29.2715192 L38.1530227,29.288041 L38.1530227,37.1739087 C38.1530227,37.6315633 37.7791371,38 37.3184566,38" id="Fill-1"></path>
            </g>
        </g>
    </g>
</svg>